<svg width="105" height="68" viewBox="0 0 105 68" fill="none" xmlns="http://www.w3.org/2000/svg">
<path d="M91.875 54.9454V0H13.125V54.9454H0V67.1555H105V54.9454H91.875ZM65.625 61.0504H39.375V54.9454H65.625V61.0504ZM85.3125 48.8403H19.6875V6.10504H85.3125V48.8403Z" fill="#1E1E1E"/>
<path d="M91.875 54.9454V0H13.125V54.9454H0V67.1555H105V54.9454H91.875ZM65.625 61.0504H39.375V54.9454H65.625V61.0504ZM85.3125 48.8403H19.6875V6.10504H85.3125V48.8403Z" fill="#1E1E1E"/>
<g filter="url(#filter0_d_2_31)">
<path d="M21.2284 29.7288H14.9952V26.7725C14.9952 26.2501 14.6984 25.9889 14.1047 25.9889H12.8225C12.2288 25.9889 11.932 26.2501 11.932 26.7725V39.88C11.932 40.4025 12.2288 40.6637 12.8225 40.6637H14.1047C14.6984 40.6637 14.9952 40.4025 14.9952 39.88V36.0689H13.2143V32.1152H21.2284V40.3431C21.2284 43.2875 19.4831 44.7598 15.9925 44.7598H10.9347C7.44409 44.7598 5.69879 43.2875 5.69879 40.3431V26.3094C5.69879 23.365 7.44409 21.8928 10.9347 21.8928H15.9925C19.4831 21.8928 21.2284 23.365 21.2284 26.3094V29.7288ZM31.9843 26.9862H37.9326V44.7598H31.8775V42.8364C31.4263 44.1186 30.3815 44.7598 28.743 44.7598H28.1019C24.9438 44.7598 23.3647 43.2875 23.3647 40.3431V31.4029C23.3647 28.4584 24.9438 26.9862 28.1019 26.9862H28.743C30.5715 26.9862 31.6519 27.7461 31.9843 29.2658V26.9862ZM30.3103 40.3075H30.9158C31.5569 40.3075 31.8775 39.9513 31.8775 39.2389V32.507C31.8775 31.7947 31.5569 31.4385 30.9158 31.4385H30.3103C29.7166 31.4385 29.4198 31.6997 29.4198 32.2221V39.5239C29.4198 40.0463 29.7166 40.3075 30.3103 40.3075ZM46.8199 44.7598H40.7648V20.9311H46.8199V35.0716L50.1681 26.9862H56.4369L52.6257 35.7483L56.4369 44.7598H50.1324L46.8199 36.4607V44.7598ZM65.9331 26.9862H71.8813V44.7598H65.8262V42.8364C65.3751 44.1186 64.3303 44.7598 62.6918 44.7598H62.0507C58.8925 44.7598 57.3134 43.2875 57.3134 40.3431V31.4029C57.3134 28.4584 58.8925 26.9862 62.0507 26.9862H62.6918C64.5202 26.9862 65.6006 27.7461 65.9331 29.2658V26.9862ZM64.259 40.3075H64.8645C65.5057 40.3075 65.8262 39.9513 65.8262 39.2389V32.507C65.8262 31.7947 65.5057 31.4385 64.8645 31.4385H64.259C63.6654 31.4385 63.3686 31.6997 63.3686 32.2221V39.5239C63.3686 40.0463 63.6654 40.3075 64.259 40.3075ZM80.7687 44.7598H74.7136V20.9311H80.7687V44.7598ZM91.9529 26.9862H98.008V44.7598H92.0597V42.4802C91.7273 43.9999 90.6469 44.7598 88.8184 44.7598H88.1773C85.0192 44.7598 83.4401 43.2875 83.4401 40.3431V26.9862H89.4952V39.5239C89.4952 40.0463 89.792 40.3075 90.3857 40.3075H90.9912C91.6323 40.3075 91.9529 39.9513 91.9529 39.2389V26.9862Z" fill="white"/>
<path d="M21.2284 29.7288V30.0998H21.5994V29.7288H21.2284ZM14.9952 29.7288H14.6242V30.0998H14.9952V29.7288ZM14.9952 36.0689H15.3662V35.6979H14.9952V36.0689ZM13.2143 36.0689H12.8432V36.4399H13.2143V36.0689ZM13.2143 32.1152V31.7442H12.8432V32.1152H13.2143ZM21.2284 32.1152H21.5994V31.7442H21.2284V32.1152ZM21.2284 29.3578H14.9952V30.0998H21.2284V29.3578ZM15.3662 29.7288V26.7725H14.6242V29.7288H15.3662ZM15.3662 26.7725C15.3662 26.4409 15.2698 26.1281 15.0177 25.9063C14.7746 25.6923 14.4479 25.6179 14.1047 25.6179V26.3599C14.3552 26.3599 14.4737 26.416 14.5275 26.4633C14.5721 26.5026 14.6242 26.5817 14.6242 26.7725H15.3662ZM14.1047 25.6179H12.8225V26.3599H14.1047V25.6179ZM12.8225 25.6179C12.4793 25.6179 12.1526 25.6923 11.9095 25.9063C11.6574 26.1281 11.561 26.4409 11.561 26.7725H12.303C12.303 26.5817 12.3551 26.5026 12.3997 26.4633C12.4535 26.416 12.572 26.3599 12.8225 26.3599V25.6179ZM11.561 26.7725V39.88H12.303V26.7725H11.561ZM11.561 39.88C11.561 40.2116 11.6574 40.5244 11.9095 40.7463C12.1526 40.9602 12.4793 41.0347 12.8225 41.0347V40.2926C12.572 40.2926 12.4535 40.2365 12.3997 40.1892C12.3551 40.1499 12.303 40.0709 12.303 39.88H11.561ZM12.8225 41.0347H14.1047V40.2926H12.8225V41.0347ZM14.1047 41.0347C14.4479 41.0347 14.7746 40.9602 15.0177 40.7463C15.2698 40.5244 15.3662 40.2116 15.3662 39.88H14.6242C14.6242 40.0709 14.5721 40.1499 14.5275 40.1892C14.4737 40.2365 14.3552 40.2926 14.1047 40.2926V41.0347ZM15.3662 39.88V36.0689H14.6242V39.88H15.3662ZM14.9952 35.6979H13.2143V36.4399H14.9952V35.6979ZM13.5853 36.0689V32.1152H12.8432V36.0689H13.5853ZM13.2143 32.4863H21.2284V31.7442H13.2143V32.4863ZM20.8574 32.1152V40.3431H21.5994V32.1152H20.8574ZM20.8574 40.3431C20.8574 41.74 20.4464 42.7257 19.6802 43.372C18.9019 44.0285 17.6946 44.3887 15.9925 44.3887V45.1308C17.781 45.1308 19.1916 44.7549 20.1587 43.9392C21.1378 43.1133 21.5994 41.8906 21.5994 40.3431H20.8574ZM15.9925 44.3887H10.9347V45.1308H15.9925V44.3887ZM10.9347 44.3887C9.23263 44.3887 8.02525 44.0285 7.24699 43.372C6.48084 42.7257 6.06982 41.74 6.06982 40.3431H5.32777C5.32777 41.8906 5.7894 43.1133 6.76854 43.9392C7.73559 44.7549 9.14615 45.1308 10.9347 45.1308V44.3887ZM6.06982 40.3431V26.3094H5.32777V40.3431H6.06982ZM6.06982 26.3094C6.06982 24.9125 6.48084 23.9268 7.24699 23.2805C8.02525 22.6241 9.23263 22.2638 10.9347 22.2638V21.5217C9.14615 21.5217 7.73559 21.8976 6.76854 22.7133C5.7894 23.5393 5.32777 24.7619 5.32777 26.3094H6.06982ZM10.9347 22.2638H15.9925V21.5217H10.9347V22.2638ZM15.9925 22.2638C17.6946 22.2638 18.9019 22.6241 19.6802 23.2805C20.4464 23.9268 20.8574 24.9125 20.8574 26.3094H21.5994C21.5994 24.7619 21.1378 23.5393 20.1587 22.7133C19.1916 21.8976 17.781 21.5217 15.9925 21.5217V22.2638ZM20.8574 26.3094V29.7288H21.5994V26.3094H20.8574ZM31.9843 26.9862V26.6152H31.6133V26.9862H31.9843ZM37.9326 26.9862H38.3036V26.6152H37.9326V26.9862ZM37.9326 44.7598V45.1308H38.3036V44.7598H37.9326ZM31.8775 44.7598H31.5064V45.1308H31.8775V44.7598ZM31.8775 42.8364H32.2485L31.5275 42.7132L31.8775 42.8364ZM31.9843 29.2658L31.6219 29.3451L32.3553 29.2658H31.9843ZM31.9843 27.3572H37.9326V26.6152H31.9843V27.3572ZM37.5616 26.9862V44.7598H38.3036V26.9862H37.5616ZM37.9326 44.3887H31.8775V45.1308H37.9326V44.3887ZM32.2485 44.7598V42.8364H31.5064V44.7598H32.2485ZM31.5275 42.7132C31.3269 43.2833 31.0032 43.6916 30.5614 43.9627C30.1139 44.2373 29.5162 44.3887 28.743 44.3887V45.1308C29.6084 45.1308 30.3522 44.9617 30.9495 44.5952C31.5525 44.2251 31.9769 43.6717 32.2275 42.9595L31.5275 42.7132ZM28.743 44.3887H28.1019V45.1308H28.743V44.3887ZM28.1019 44.3887C26.5738 44.3887 25.4968 44.032 24.802 43.3842C24.112 42.741 23.7357 41.7512 23.7357 40.3431H22.9936C22.9936 41.8794 23.4068 43.098 24.296 43.927C25.1802 44.7514 26.4719 45.1308 28.1019 45.1308V44.3887ZM23.7357 40.3431V31.4029H22.9936V40.3431H23.7357ZM23.7357 31.4029C23.7357 29.9948 24.112 29.005 24.802 28.3617C25.4968 27.7139 26.5738 27.3572 28.1019 27.3572V26.6152C26.4719 26.6152 25.1802 26.9946 24.296 27.819C23.4068 28.648 22.9936 29.8665 22.9936 31.4029H23.7357ZM28.1019 27.3572H28.743V26.6152H28.1019V27.3572ZM28.743 27.3572C29.6094 27.3572 30.2534 27.5376 30.7112 27.8596C31.1622 28.1768 31.4717 28.6588 31.6219 29.3451L32.3468 29.1865C32.1645 28.353 31.7675 27.6953 31.1381 27.2526C30.5155 26.8147 29.7051 26.6152 28.743 26.6152V27.3572ZM32.3553 29.2658V26.9862H31.6133V29.2658H32.3553ZM30.3103 40.6785H30.9158V39.9364H30.3103V40.6785ZM30.9158 40.6785C31.3042 40.6785 31.6606 40.5688 31.9128 40.2885C32.1584 40.0157 32.2485 39.6432 32.2485 39.2389H31.5064C31.5064 39.547 31.4363 39.7088 31.3613 39.7921C31.2929 39.868 31.1685 39.9364 30.9158 39.9364V40.6785ZM32.2485 39.2389V32.507H31.5064V39.2389H32.2485ZM32.2485 32.507C32.2485 32.1028 32.1584 31.7303 31.9128 31.4574C31.6606 31.1772 31.3042 31.0675 30.9158 31.0675V31.8095C31.1685 31.8095 31.2929 31.8779 31.3613 31.9538C31.4363 32.0372 31.5064 32.199 31.5064 32.507H32.2485ZM30.9158 31.0675H30.3103V31.8095H30.9158V31.0675ZM30.3103 31.0675C29.9671 31.0675 29.6404 31.1419 29.3973 31.3559C29.1452 31.5777 29.0488 31.8905 29.0488 32.2221H29.7908C29.7908 32.0313 29.8428 31.9522 29.8875 31.9129C29.9412 31.8656 30.0598 31.8095 30.3103 31.8095V31.0675ZM29.0488 32.2221V39.5239H29.7908V32.2221H29.0488ZM29.0488 39.5239C29.0488 39.8554 29.1452 40.1682 29.3973 40.3901C29.6404 40.604 29.9671 40.6785 30.3103 40.6785V39.9364C30.0598 39.9364 29.9412 39.8803 29.8875 39.833C29.8428 39.7937 29.7908 39.7147 29.7908 39.5239H29.0488ZM46.8199 44.7598V45.1308H47.191V44.7598H46.8199ZM40.7648 44.7598H40.3938V45.1308H40.7648V44.7598ZM40.7648 20.9311V20.56H40.3938V20.9311H40.7648ZM46.8199 20.9311H47.191V20.56H46.8199V20.9311ZM46.8199 35.0716H46.4489L47.1627 35.2135L46.8199 35.0716ZM50.1681 26.9862V26.6152H49.9201L49.8253 26.8442L50.1681 26.9862ZM56.4369 26.9862L56.7771 27.1342L57.0029 26.6152H56.4369V26.9862ZM52.6257 35.7483L52.2855 35.6003L52.222 35.7463L52.284 35.8928L52.6257 35.7483ZM56.4369 44.7598V45.1308H56.9966L56.7786 44.6152L56.4369 44.7598ZM50.1324 44.7598L49.7878 44.8973L49.881 45.1308H50.1324V44.7598ZM46.8199 36.4607L47.1645 36.3231L46.4489 36.4607H46.8199ZM46.8199 44.3887H40.7648V45.1308H46.8199V44.3887ZM41.1358 44.7598V20.9311H40.3938V44.7598H41.1358ZM40.7648 21.3021H46.8199V20.56H40.7648V21.3021ZM46.4489 20.9311V35.0716H47.191V20.9311H46.4489ZM47.1627 35.2135L50.5109 27.1281L49.8253 26.8442L46.4771 34.9296L47.1627 35.2135ZM50.1681 27.3572H56.4369V26.6152H50.1681V27.3572ZM56.0967 26.8382L52.2855 35.6003L52.966 35.8963L56.7771 27.1342L56.0967 26.8382ZM52.284 35.8928L56.0952 44.9043L56.7786 44.6152L52.9674 35.6038L52.284 35.8928ZM56.4369 44.3887H50.1324V45.1308H56.4369V44.3887ZM50.477 44.6222L47.1645 36.3231L46.4753 36.5982L49.7878 44.8973L50.477 44.6222ZM46.4489 36.4607V44.7598H47.191V36.4607H46.4489ZM65.9331 26.9862V26.6152H65.5621V26.9862H65.9331ZM71.8813 26.9862H72.2524V26.6152H71.8813V26.9862ZM71.8813 44.7598V45.1308H72.2524V44.7598H71.8813ZM65.8262 44.7598H65.4552V45.1308H65.8262V44.7598ZM65.8262 42.8364H66.1972L65.4762 42.7132L65.8262 42.8364ZM65.9331 29.2658L65.5706 29.3451L66.3041 29.2658H65.9331ZM65.9331 27.3572H71.8813V26.6152H65.9331V27.3572ZM71.5103 26.9862V44.7598H72.2524V26.9862H71.5103ZM71.8813 44.3887H65.8262V45.1308H71.8813V44.3887ZM66.1972 44.7598V42.8364H65.4552V44.7598H66.1972ZM65.4762 42.7132C65.2756 43.2833 64.952 43.6916 64.5102 43.9627C64.0627 44.2373 63.4649 44.3887 62.6918 44.3887V45.1308C63.5571 45.1308 64.301 44.9617 64.8983 44.5952C65.5013 44.2251 65.9256 43.6717 66.1762 42.9595L65.4762 42.7132ZM62.6918 44.3887H62.0507V45.1308H62.6918V44.3887ZM62.0507 44.3887C60.5226 44.3887 59.4456 44.032 58.7508 43.3842C58.0608 42.741 57.6845 41.7512 57.6845 40.3431H56.9424C56.9424 41.8794 57.3556 43.098 58.2447 43.927C59.129 44.7514 60.4206 45.1308 62.0507 45.1308V44.3887ZM57.6845 40.3431V31.4029H56.9424V40.3431H57.6845ZM57.6845 31.4029C57.6845 29.9948 58.0608 29.005 58.7508 28.3617C59.4456 27.7139 60.5226 27.3572 62.0507 27.3572V26.6152C60.4206 26.6152 59.129 26.9946 58.2447 27.819C57.3556 28.648 56.9424 29.8665 56.9424 31.4029H57.6845ZM62.0507 27.3572H62.6918V26.6152H62.0507V27.3572ZM62.6918 27.3572C63.5582 27.3572 64.2022 27.5376 64.66 27.8596C65.111 28.1768 65.4205 28.6588 65.5706 29.3451L66.2955 29.1865C66.1132 28.353 65.7163 27.6953 65.0869 27.2526C64.4643 26.8147 63.6539 26.6152 62.6918 26.6152V27.3572ZM66.3041 29.2658V26.9862H65.5621V29.2658H66.3041ZM64.259 40.6785H64.8645V39.9364H64.259V40.6785ZM64.8645 40.6785C65.253 40.6785 65.6093 40.5688 65.8616 40.2885C66.1071 40.0157 66.1972 39.6432 66.1972 39.2389H65.4552C65.4552 39.547 65.385 39.7088 65.31 39.7921C65.2417 39.868 65.1172 39.9364 64.8645 39.9364V40.6785ZM66.1972 39.2389V32.507H65.4552V39.2389H66.1972ZM66.1972 32.507C66.1972 32.1028 66.1071 31.7303 65.8616 31.4574C65.6093 31.1772 65.253 31.0675 64.8645 31.0675V31.8095C65.1172 31.8095 65.2417 31.8779 65.31 31.9538C65.385 32.0372 65.4552 32.199 65.4552 32.507H66.1972ZM64.8645 31.0675H64.259V31.8095H64.8645V31.0675ZM64.259 31.0675C63.9158 31.0675 63.5892 31.1419 63.3461 31.3559C63.0939 31.5777 62.9975 31.8905 62.9975 32.2221H63.7396C63.7396 32.0313 63.7916 31.9522 63.8363 31.9129C63.89 31.8656 64.0086 31.8095 64.259 31.8095V31.0675ZM62.9975 32.2221V39.5239H63.7396V32.2221H62.9975ZM62.9975 39.5239C62.9975 39.8554 63.0939 40.1682 63.3461 40.3901C63.5892 40.604 63.9158 40.6785 64.259 40.6785V39.9364C64.0086 39.9364 63.89 39.8803 63.8363 39.833C63.7916 39.7937 63.7396 39.7147 63.7396 39.5239H62.9975ZM80.7687 44.7598V45.1308H81.1397V44.7598H80.7687ZM74.7136 44.7598H74.3425V45.1308H74.7136V44.7598ZM74.7136 20.9311V20.56H74.3425V20.9311H74.7136ZM80.7687 20.9311H81.1397V20.56H80.7687V20.9311ZM80.7687 44.3887H74.7136V45.1308H80.7687V44.3887ZM75.0846 44.7598V20.9311H74.3425V44.7598H75.0846ZM74.7136 21.3021H80.7687V20.56H74.7136V21.3021ZM80.3977 20.9311V44.7598H81.1397V20.9311H80.3977ZM91.9529 26.9862V26.6152H91.5818V26.9862H91.9529ZM98.008 26.9862H98.379V26.6152H98.008V26.9862ZM98.008 44.7598V45.1308H98.379V44.7598H98.008ZM92.0597 44.7598H91.6887V45.1308H92.0597V44.7598ZM92.0597 42.4802H92.4307L91.6973 42.4009L92.0597 42.4802ZM83.4401 26.9862V26.6152H83.069V26.9862H83.4401ZM89.4952 26.9862H89.8662V26.6152H89.4952V26.9862ZM91.9529 27.3572H98.008V26.6152H91.9529V27.3572ZM97.637 26.9862V44.7598H98.379V26.9862H97.637ZM98.008 44.3887H92.0597V45.1308H98.008V44.3887ZM92.4307 44.7598V42.4802H91.6887V44.7598H92.4307ZM91.6973 42.4009C91.5471 43.0872 91.2376 43.5692 90.7866 43.8864C90.3288 44.2084 89.6848 44.3887 88.8184 44.3887V45.1308C89.7805 45.1308 90.5909 44.9312 91.2135 44.4934C91.8429 44.0507 92.2399 43.3929 92.4222 42.5595L91.6973 42.4009ZM88.8184 44.3887H88.1773V45.1308H88.8184V44.3887ZM88.1773 44.3887C86.6492 44.3887 85.5722 44.032 84.8774 43.3842C84.1875 42.741 83.8111 41.7512 83.8111 40.3431H83.069C83.069 41.8794 83.4822 43.098 84.3714 43.927C85.2556 44.7514 86.5473 45.1308 88.1773 45.1308V44.3887ZM83.8111 40.3431V26.9862H83.069V40.3431H83.8111ZM83.4401 27.3572H89.4952V26.6152H83.4401V27.3572ZM89.1242 26.9862V39.5239H89.8662V26.9862H89.1242ZM89.1242 39.5239C89.1242 39.8554 89.2206 40.1682 89.4727 40.3901C89.7158 40.604 90.0425 40.6785 90.3857 40.6785V39.9364C90.1352 39.9364 90.0166 39.8803 89.9629 39.833C89.9182 39.7937 89.8662 39.7147 89.8662 39.5239H89.1242ZM90.3857 40.6785H90.9912V39.9364H90.3857V40.6785ZM90.9912 40.6785C91.3796 40.6785 91.736 40.5688 91.9882 40.2885C92.2338 40.0157 92.3239 39.6432 92.3239 39.2389H91.5818C91.5818 39.547 91.5117 39.7088 91.4367 39.7921C91.3683 39.868 91.2439 39.9364 90.9912 39.9364V40.6785ZM92.3239 39.2389V26.9862H91.5818V39.2389H92.3239Z" fill="#B89607"/>
</g>
<defs>
<filter id="filter0_d_2_31" x="4.21463" y="20.9311" width="95.2774" height="26.7969" filterUnits="userSpaceOnUse" color-interpolation-filters="sRGB">
<feFlood flood-opacity="0" result="BackgroundImageFix"/>
<feColorMatrix in="SourceAlpha" type="matrix" values="0 0 0 0 0 0 0 0 0 0 0 0 0 0 0 0 0 0 127 0" result="hardAlpha"/>
<feOffset dy="1.4841"/>
<feGaussianBlur stdDeviation="0.742049"/>
<feComposite in2="hardAlpha" operator="out"/>
<feColorMatrix type="matrix" values="0 0 0 0 0 0 0 0 0 0 0 0 0 0 0 0 0 0 0.25 0"/>
<feBlend mode="normal" in2="BackgroundImageFix" result="effect1_dropShadow_2_31"/>
<feBlend mode="normal" in="SourceGraphic" in2="effect1_dropShadow_2_31" result="shape"/>
</filter>
</defs>
</svg>
