<svg width="27" height="32" viewBox="0 0 27 32" fill="none" xmlns="http://www.w3.org/2000/svg">
<path d="M22.95 0H4.05C1.81406 0 0 1.34375 0 3V29C0 30.6562 1.81406 32 4.05 32H22.95C25.1859 32 27 30.6562 27 29V3C27 1.34375 25.1859 0 22.95 0ZM13.5 30C12.0066 30 10.8 29.1063 10.8 28C10.8 26.8937 12.0066 26 13.5 26C14.9934 26 16.2 26.8937 16.2 28C16.2 29.1063 14.9934 30 13.5 30ZM22.95 23.25C22.95 23.6625 22.4944 24 21.9375 24H5.0625C4.50563 24 4.05 23.6625 4.05 23.25V3.75C4.05 3.3375 4.50563 3 5.0625 3H21.9375C22.4944 3 22.95 3.3375 22.95 3.75V23.25Z" fill="white"/>
</svg>
