<svg width="31" height="31" viewBox="0 0 31 31" fill="none" xmlns="http://www.w3.org/2000/svg">
<path fill-rule="evenodd" clip-rule="evenodd" d="M9.05908 0.0924833C10.7032 0.0171234 11.2273 0 15.4139 0C19.6013 0 20.1245 0.0179782 21.7678 0.0924833C23.4093 0.166988 24.5304 0.42817 25.5108 0.809229C26.5392 1.19641 27.4708 1.80306 28.2408 2.58697C29.0248 3.35686 29.6315 4.28851 30.0185 5.31694C30.3995 6.29743 30.6599 7.41837 30.7353 9.05908C30.8107 10.7032 30.8278 11.2273 30.8278 15.4139C30.8278 19.6004 30.8098 20.1245 30.7353 21.7687C30.6607 23.4093 30.3995 24.5304 30.0185 25.5108C29.6246 26.5239 29.0971 27.3844 28.2408 28.2408C27.4709 29.0248 26.5392 29.6315 25.5108 30.0185C24.5304 30.3995 23.4093 30.6599 21.7687 30.7353C20.1245 30.8107 19.6004 30.8278 15.4139 30.8278C11.2273 30.8278 10.7032 30.8098 9.05908 30.7353C7.41837 30.6607 6.29743 30.3995 5.31694 30.0185C4.30389 29.6246 3.44329 29.0971 2.58697 28.2408C1.80292 27.4709 1.19623 26.5392 0.809229 25.5108C0.42817 24.5304 0.167843 23.4093 0.0924833 21.7687C0.0171234 20.1245 0 19.6013 0 15.4139C0 11.2265 0.0179782 10.7032 0.0924833 9.05994C0.166988 7.41837 0.42817 6.29743 0.809229 5.31694C1.19641 4.28858 1.80306 3.35698 2.58697 2.58697C3.35685 1.80292 4.28849 1.19623 5.31694 0.809229C6.29743 0.42817 7.41837 0.167843 9.05908 0.0924833ZM21.6428 2.86698C20.0175 2.79333 19.5294 2.77706 15.4139 2.77706C11.2984 2.77706 10.8103 2.79333 9.18497 2.86698C7.68211 2.93549 6.86603 3.18639 6.32311 3.39791C5.6038 3.67707 5.09 4.01103 4.55051 4.55051C4.0119 5.09 3.67707 5.6038 3.39791 6.32311C3.18639 6.86603 2.93549 7.68211 2.86698 9.18497C2.79333 10.8103 2.77706 11.2984 2.77706 15.4139C2.77706 19.5294 2.79333 20.0175 2.86698 21.6428C2.93549 23.1456 3.18639 23.9617 3.39791 24.5047C3.64484 25.1742 4.0387 25.7799 4.55051 26.2773C5.04782 26.789 5.65355 27.1829 6.32311 27.4298C6.86603 27.6414 7.68211 27.8923 9.18497 27.9608C10.8103 28.0345 11.2975 28.0507 15.4139 28.0507C19.5302 28.0507 20.0175 28.0345 21.6428 27.9608C23.1456 27.8923 23.9617 27.6414 24.5047 27.4298C25.224 27.1507 25.7378 26.8168 26.2773 26.2773C26.789 25.78 27.1829 25.1742 27.4298 24.5047C27.6414 23.9617 27.8923 23.1456 27.9608 21.6428C28.0345 20.0175 28.0507 19.5294 28.0507 15.4139C28.0507 11.2984 28.0345 10.8103 27.9608 9.18497C27.8923 7.68211 27.6414 6.86603 27.4298 6.32311C27.1507 5.6038 26.8168 5.09 26.2773 4.55051C25.7378 4.0119 25.224 3.67707 24.5047 3.39791C23.9617 3.18639 23.1456 2.93549 21.6428 2.86698ZM13.4458 20.1654C14.0698 20.424 14.7385 20.5569 15.4139 20.5569C16.778 20.5569 18.0861 20.0151 19.0506 19.0506C20.0152 18.0861 20.5571 16.7779 20.5571 15.4139C20.5571 14.0499 20.0152 12.7417 19.0506 11.7772C18.0861 10.8126 16.778 10.2708 15.4139 10.2708C14.7385 10.2708 14.0698 10.4038 13.4458 10.6623C12.8217 10.9207 12.2548 11.2996 11.7772 11.7772C11.2996 12.2547 10.9208 12.8217 10.6623 13.4457C10.4039 14.0697 10.2708 14.7385 10.2708 15.4139C10.2708 16.0893 10.4039 16.7581 10.6623 17.3821C10.9208 18.0061 11.2996 18.573 11.7772 19.0506C12.2548 19.5281 12.8217 19.907 13.4458 20.1654ZM9.81171 9.81165C11.2975 8.32585 13.3127 7.49113 15.4139 7.49113C17.5152 7.49113 19.5304 8.32585 21.0161 9.81165C22.5019 11.2975 23.3366 13.3127 23.3366 15.4139C23.3366 17.5151 22.5019 19.5302 21.0161 21.0161C19.5304 22.5019 17.5152 23.3366 15.4139 23.3366C13.3127 23.3366 11.2975 22.5019 9.81171 21.0161C8.32591 19.5302 7.49119 17.5151 7.49119 15.4139C7.49119 13.3127 8.32591 11.2975 9.81171 9.81165ZM25.0934 8.67154C25.4445 8.32032 25.6418 7.84397 25.6418 7.34728C25.6418 6.85057 25.4445 6.37423 25.0934 6.02302C24.7421 5.6718 24.2658 5.47449 23.7691 5.47449C23.2724 5.47449 22.796 5.6718 22.4449 6.02302C22.0936 6.37423 21.8963 6.85057 21.8963 7.34728C21.8963 7.84397 22.0936 8.32032 22.4449 8.67154C22.796 9.02275 23.2724 9.22007 23.7691 9.22007C24.2658 9.22007 24.7421 9.02275 25.0934 8.67154Z" fill="white"/>
</svg>
