<svg width="43" height="42" viewBox="0 0 43 42" fill="none" xmlns="http://www.w3.org/2000/svg">
<path d="M33.5317 6.89264H8.82405C7.41986 6.89264 6.07318 7.43728 5.08027 8.40675C4.08735 9.37622 3.52954 10.6911 3.52954 12.0621V29.2938C3.52954 30.6649 4.08735 31.9797 5.08027 32.9492C6.07318 33.9187 7.41986 34.4633 8.82405 34.4633H33.5317C34.9359 34.4633 36.2826 33.9187 37.2755 32.9492C38.2684 31.9797 38.8262 30.6649 38.8262 29.2938V12.0621C38.8262 10.6911 38.2684 9.37622 37.2755 8.40675C36.2826 7.43728 34.9359 6.89264 33.5317 6.89264ZM32.3493 10.339L21.1779 18.524L10.0065 10.339H32.3493ZM33.5317 31.017H8.82405C8.35598 31.017 7.90709 30.8354 7.57612 30.5123C7.24515 30.1891 7.05921 29.7508 7.05921 29.2938V12.4929L20.119 22.0565C20.4245 22.2802 20.796 22.4012 21.1779 22.4012C21.5597 22.4012 21.9313 22.2802 22.2368 22.0565L35.2966 12.4929V29.2938C35.2966 29.7508 35.1106 30.1891 34.7797 30.5123C34.4487 30.8354 33.9998 31.017 33.5317 31.017Z" fill="white"/>
</svg>
